<svg width="158" height="30" viewBox="0 0 158 30" fill="none" xmlns="http://www.w3.org/2000/svg">
<path d="M52.6127 29.9571C50.9159 29.9571 49.706 29.4425 48.9828 28.4133C48.2874 27.3842 47.9397 25.9795 47.9397 24.1993V0H52.7378V24.4497C52.7378 25.0338 52.8491 25.451 53.0716 25.7013C53.2941 25.9239 53.5306 26.0351 53.7809 26.0351H54.073C54.1842 26.0073 54.3372 25.9795 54.5319 25.9517L55.1578 29.5399C54.8796 29.6511 54.518 29.7485 54.073 29.8319C53.6557 29.9154 53.169 29.9571 52.6127 29.9571Z" fill="white"/>
<path d="M6.09155 28.3299C7.95518 29.4147 10.0274 29.9571 12.3083 29.9571C14.0606 29.9571 15.6461 29.6233 17.0647 28.9557C18.5111 28.2603 19.7906 27.2729 20.9032 25.9934L18.3164 22.9476C17.5375 23.7821 16.6753 24.4636 15.7296 24.9921C14.7838 25.4927 13.699 25.7431 12.4752 25.7431C10.1943 25.7431 8.37241 24.8669 7.00946 23.1145C5.64651 21.3343 4.96503 18.8866 4.96503 15.7713C4.96503 13.7129 5.28491 11.9467 5.92466 10.4725C6.59223 8.99825 7.49623 7.87173 8.63665 7.0929C9.8049 6.28626 11.1261 5.88294 12.6003 5.88294C13.6573 5.88294 14.603 6.10546 15.4375 6.5505C16.2998 6.96773 17.0786 7.53795 17.774 8.26115L20.3608 5.13192C19.4985 4.21402 18.3998 3.40737 17.0647 2.71199C15.7296 2.01661 14.1997 1.66892 12.4752 1.66892C10.1943 1.66892 8.10816 2.23913 6.21672 3.37956C4.32528 4.49217 2.80935 6.11937 1.66892 8.26115C0.556306 10.3751 0 12.9202 0 15.8964C0 18.9005 0.542398 21.4595 1.6272 23.5735C2.73981 25.6596 4.22793 27.2451 6.09155 28.3299Z" fill="white"/>
<path fill-rule="evenodd" clip-rule="evenodd" d="M28.6708 28.7054C30.1451 29.5399 31.7305 29.9571 33.4273 29.9571C35.1518 29.9571 36.7512 29.5399 38.2254 28.7054C39.6996 27.8431 40.8957 26.6192 41.8136 25.0338C42.7315 23.4205 43.1904 21.4873 43.1904 19.2343C43.1904 16.9534 42.7315 15.0203 41.8136 13.4348C40.8957 11.8215 39.6996 10.5976 38.2254 9.76317C36.7512 8.9009 35.1518 8.46976 33.4273 8.46976C31.7305 8.46976 30.1451 8.9009 28.6708 9.76317C27.1966 10.5976 26.0006 11.8215 25.0827 13.4348C24.1648 15.0203 23.7058 16.9534 23.7058 19.2343C23.7058 21.4873 24.1648 23.4205 25.0827 25.0338C26.0006 26.6192 27.1966 27.8431 28.6708 28.7054ZM36.9737 24.1576C36.1114 25.4093 34.9293 26.0351 33.4273 26.0351C31.9252 26.0351 30.7431 25.4093 29.8808 24.1576C29.0464 22.9059 28.6291 21.2648 28.6291 19.2343C28.6291 17.1759 29.0464 15.5209 29.8808 14.2693C30.7431 13.0176 31.9252 12.3917 33.4273 12.3917C34.9293 12.3917 36.1114 13.0176 36.9737 14.2693C37.836 15.5209 38.2671 17.1759 38.2671 19.2343C38.2671 21.2648 37.836 22.9059 36.9737 24.1576Z" fill="white"/>
<path d="M60.5602 27.8292C61.5616 29.2478 63.161 29.9571 65.3584 29.9571C66.7491 29.9571 67.973 29.6372 69.03 28.9975C70.087 28.3577 71.0605 27.5093 71.9506 26.4524H72.0758L72.4513 29.4564H76.3732V8.97044H71.5751V22.9893C70.7963 23.9907 70.0592 24.7139 69.3638 25.1589C68.6962 25.604 67.9174 25.8265 67.0273 25.8265C65.9147 25.8265 65.108 25.4788 64.6074 24.7834C64.1067 24.0881 63.8563 22.892 63.8563 21.1953V8.97044H59.0582V21.8211C59.0582 24.4079 59.5589 26.4106 60.5602 27.8292Z" fill="white"/>
<path d="M82.4508 29.4564V8.97044H86.4144L86.7482 11.7659H86.9151C87.7774 10.848 88.7092 10.0691 89.7105 9.42939C90.7397 8.78964 91.8941 8.46976 93.1736 8.46976C94.6756 8.46976 95.8716 8.80354 96.7617 9.47111C97.6796 10.1109 98.375 11.001 98.8479 12.1414C99.8214 11.0844 100.837 10.2082 101.894 9.51283C102.978 8.81745 104.161 8.46976 105.44 8.46976C107.61 8.46976 109.209 9.17905 110.238 10.5976C111.267 12.0162 111.782 14.0189 111.782 16.6057V29.4564H106.942V17.2316C106.942 15.5348 106.678 14.3388 106.149 13.6434C105.649 12.948 104.87 12.6003 103.813 12.6003C102.533 12.6003 101.101 13.4487 99.5154 15.1454V29.4564H94.7173V17.2316C94.7173 15.5348 94.4531 14.3388 93.9246 13.6434C93.4239 12.948 92.6312 12.6003 91.5464 12.6003C90.2669 12.6003 88.8344 13.4487 87.2489 15.1454V29.4564H82.4508Z" fill="white"/>
<path d="M117.614 8.97044V29.4564H122.412V15.1454C123.274 14.311 124.039 13.6851 124.707 13.2679C125.402 12.8229 126.195 12.6003 127.085 12.6003C128.225 12.6003 129.046 12.948 129.547 13.6434C130.047 14.3388 130.298 15.5348 130.298 17.2316V29.4564H135.096V16.6057C135.096 14.0189 134.595 12.0162 133.594 10.5976C132.592 9.17905 130.993 8.46976 128.796 8.46976C127.405 8.46976 126.167 8.78964 125.082 9.42939C123.997 10.0691 122.996 10.8341 122.078 11.7242H121.911L121.577 8.97044H117.614Z" fill="white"/>
<path d="M146.842 9.62693C146.311 9.62693 145.843 9.98644 145.7 10.4982C145.396 11.5912 143.888 11.7317 143.414 10.7011L141.832 7.26694C141.261 6.02791 142.6 4.77765 143.797 5.43163L147.409 7.40476C148.485 7.9924 148.068 9.62693 146.842 9.62693Z" fill="#3B7586"/>
<path d="M143.346 13.096C143.944 14.3936 145.827 14.2681 146.248 12.9027L146.646 11.6068C146.85 10.9437 147.469 10.4957 148.162 10.5083L148.764 10.5193C150.391 10.549 150.967 8.3772 149.539 7.59706L143.659 4.38479C143.306 4.19221 143.28 3.6998 143.631 3.50472C144.911 2.78152 146.302 2.41992 147.804 2.41992C149.528 2.41992 151.114 2.87887 152.56 3.79678C154.034 4.71468 155.202 6.13326 156.065 8.05252C156.955 9.94396 157.4 12.3778 157.4 15.354C157.4 18.7753 156.913 21.5708 155.94 23.7404C154.966 25.8821 153.687 27.4537 152.101 28.455C150.516 29.4564 148.805 29.9571 146.969 29.9571C145.384 29.9571 144.007 29.665 142.839 29.0809C142.146 28.7345 141.517 28.3442 140.951 27.9098C140.306 27.4147 140.292 26.4833 140.831 25.8748L141.279 25.3697C141.905 24.6628 143.016 24.6857 143.814 25.1909C143.982 25.2973 144.158 25.3979 144.341 25.4927C145.119 25.8543 145.912 26.0351 146.719 26.0351C147.831 26.0351 148.847 25.7291 149.765 25.1172C150.682 24.5053 151.433 23.49 152.018 22.0714C152.283 21.4153 152.493 20.656 152.649 19.7938C152.859 18.6358 151.265 17.9352 150.224 18.4833C149.167 19.0396 148.151 19.3177 147.178 19.3177C144.897 19.3177 143.033 18.6502 141.587 17.315C140.168 15.9521 139.459 13.8798 139.459 11.0983C139.459 10.6369 139.484 10.1922 139.535 9.76443C139.685 8.48589 141.21 8.45838 141.749 9.62773L143.346 13.096Z" fill="#0F756B"/>
</svg>
