<svg width="125" height="24" viewBox="0 0 125 24" fill="none" xmlns="http://www.w3.org/2000/svg">
<path d="M41.9682 23.8936C40.6344 23.8936 39.6832 23.489 39.1146 22.68C38.568 21.8709 38.2946 20.7666 38.2946 19.3672V0.34317H42.0666V19.564C42.0666 20.0232 42.1541 20.3512 42.329 20.548C42.504 20.7229 42.6898 20.8104 42.8866 20.8104H43.1162C43.2037 20.7885 43.324 20.7666 43.477 20.7448L43.969 23.5656C43.7504 23.653 43.4661 23.7296 43.1162 23.7952C42.7882 23.8608 42.4056 23.8936 41.9682 23.8936Z" fill="#1B353D"/>
<path d="M5.39622 22.6144C6.86129 23.4672 8.49036 23.8936 10.2834 23.8936C11.661 23.8936 12.9074 23.6312 14.0226 23.1064C15.1597 22.5597 16.1656 21.7834 17.0402 20.7776L15.0066 18.3832C14.3944 19.0392 13.7165 19.5749 12.973 19.9904C12.2296 20.384 11.3768 20.5808 10.4146 20.5808C8.62156 20.5808 7.18929 19.892 6.11782 18.5144C5.04636 17.1149 4.51062 15.1906 4.51062 12.7416C4.51062 11.1234 4.76209 9.7349 5.26502 8.57597C5.78982 7.41704 6.50049 6.53144 7.39702 5.91917C8.31542 5.28504 9.35409 4.96797 10.513 4.96797C11.344 4.96797 12.0874 5.1429 12.7434 5.49277C13.4213 5.82077 14.0336 6.26904 14.5802 6.83757L16.6138 4.37757C15.936 3.65597 15.0722 3.02184 14.0226 2.47517C12.973 1.9285 11.7704 1.65517 10.4146 1.65517C8.62156 1.65517 6.98156 2.10344 5.49462 2.99997C4.00769 3.87464 2.81596 5.15384 1.91942 6.83757C1.04476 8.49944 0.607422 10.5002 0.607422 12.84C0.607422 15.2016 1.03382 17.2133 1.88662 18.8752C2.76129 20.5152 3.93116 21.7616 5.39622 22.6144Z" fill="#1B353D"/>
<path fill-rule="evenodd" clip-rule="evenodd" d="M23.1467 22.9096C24.3056 23.5656 25.552 23.8936 26.8859 23.8936C28.2416 23.8936 29.4989 23.5656 30.6579 22.9096C31.8168 22.2317 32.7571 21.2696 33.4787 20.0232C34.2003 18.7549 34.5611 17.2352 34.5611 15.464C34.5611 13.6709 34.2003 12.1512 33.4787 10.9048C32.7571 9.6365 31.8168 8.67437 30.6579 8.01837C29.4989 7.3405 28.2416 7.00157 26.8859 7.00157C25.552 7.00157 24.3056 7.3405 23.1467 8.01837C21.9877 8.67437 21.0475 9.6365 20.3259 10.9048C19.6043 12.1512 19.2435 13.6709 19.2435 15.464C19.2435 17.2352 19.6043 18.7549 20.3259 20.0232C21.0475 21.2696 21.9877 22.2317 23.1467 22.9096ZM29.6739 19.3344C28.996 20.3184 28.0667 20.8104 26.8859 20.8104C25.7051 20.8104 24.7757 20.3184 24.0979 19.3344C23.4419 18.3504 23.1139 17.0602 23.1139 15.464C23.1139 13.8458 23.4419 12.5448 24.0979 11.5608C24.7757 10.5768 25.7051 10.0848 26.8859 10.0848C28.0667 10.0848 28.996 10.5768 29.6739 11.5608C30.3517 12.5448 30.6907 13.8458 30.6907 15.464C30.6907 17.0602 30.3517 18.3504 29.6739 19.3344Z" fill="#1B353D"/>
<path d="M48.2161 22.2208C49.0033 23.336 50.2606 23.8936 51.9881 23.8936C53.0814 23.8936 54.0436 23.6421 54.8745 23.1392C55.7054 22.6362 56.4708 21.9693 57.1705 21.1384H57.2689L57.5641 23.5H60.6473V7.39517H56.8753V18.416C56.263 19.2032 55.6836 19.7717 55.1369 20.1216C54.6121 20.4714 53.9998 20.6464 53.3001 20.6464C52.4254 20.6464 51.7913 20.373 51.3977 19.8264C51.0041 19.2797 50.8073 18.3394 50.8073 17.0056V7.39517H47.0353V17.4976C47.0353 19.5312 47.4289 21.1056 48.2161 22.2208Z" fill="#1B353D"/>
<path d="M65.4251 23.5V7.39517H68.5411L68.8035 9.59277H68.9347C69.6125 8.87117 70.3451 8.2589 71.1323 7.75597C71.9414 7.25304 72.8488 7.00157 73.8547 7.00157C75.0355 7.00157 75.9758 7.26397 76.6755 7.78877C77.3971 8.2917 77.9437 8.99144 78.3155 9.88797C79.0808 9.05704 79.879 8.36824 80.7099 7.82157C81.5627 7.2749 82.492 7.00157 83.4979 7.00157C85.2035 7.00157 86.4608 7.55917 87.2699 8.67437C88.079 9.78957 88.4835 11.364 88.4835 13.3976V23.5H84.6787V13.8896C84.6787 12.5557 84.471 11.6154 84.0555 11.0688C83.6619 10.5221 83.0496 10.2488 82.2187 10.2488C81.2128 10.2488 80.0867 10.9157 78.8403 12.2496V23.5H75.0683V13.8896C75.0683 12.5557 74.8605 11.6154 74.4451 11.0688C74.0515 10.5221 73.4283 10.2488 72.5755 10.2488C71.5696 10.2488 70.4435 10.9157 69.1971 12.2496V23.5H65.4251Z" fill="#1B353D"/>
<path d="M93.0681 7.39517V23.5H96.84V12.2496C97.5179 11.5936 98.1192 11.1016 98.6441 10.7736C99.1907 10.4237 99.8139 10.2488 100.514 10.2488C101.41 10.2488 102.055 10.5221 102.449 11.0688C102.842 11.6154 103.039 12.5557 103.039 13.8896V23.5H106.811V13.3976C106.811 11.364 106.418 9.78957 105.63 8.67437C104.843 7.55917 103.586 7.00157 101.858 7.00157C100.765 7.00157 99.7921 7.25304 98.9393 7.75597C98.0865 8.2589 97.2993 8.86024 96.5777 9.55997H96.4465L96.1841 7.39517H93.0681Z" fill="#1B353D"/>
<path d="M116.045 7.91138C115.627 7.91138 115.26 8.19401 115.148 8.59633C114.908 9.45558 113.723 9.56604 113.35 8.75584L112.107 6.0561C111.658 5.08206 112.711 4.09918 113.652 4.6133L116.491 6.16445C117.337 6.62641 117.009 7.91138 116.045 7.91138Z" fill="#3B7586"/>
<path d="M113.542 11.17C113.926 12.0036 115.136 11.923 115.406 11.0458L115.941 9.30685C116.072 8.88082 116.469 8.593 116.915 8.60113L118.467 8.62944C119.512 8.64851 119.882 7.25323 118.964 6.75202L113.543 3.79026C113.266 3.63887 113.245 3.25177 113.521 3.0984C114.527 2.52987 115.62 2.24561 116.801 2.24561C118.157 2.24561 119.403 2.60641 120.54 3.32801C121.699 4.04961 122.618 5.1648 123.296 6.6736C123.995 8.16054 124.345 10.0739 124.345 12.4136C124.345 15.1032 123.963 17.3008 123.197 19.0064C122.432 20.6901 121.426 21.9256 120.18 22.7128C118.933 23.5 117.588 23.8936 116.145 23.8936C114.899 23.8936 113.816 23.664 112.898 23.2048C112.286 22.8989 111.737 22.5493 111.252 22.156C110.846 21.8274 110.836 21.2302 111.183 20.8393L111.842 20.0951C112.244 19.641 112.956 19.6544 113.452 20.0041C113.647 20.1417 113.856 20.2683 114.079 20.384C114.691 20.6683 115.314 20.8104 115.948 20.8104C116.823 20.8104 117.621 20.5699 118.343 20.0888C119.064 19.6077 119.655 18.8096 120.114 17.6944C120.322 17.1786 120.488 16.5817 120.611 15.9038C120.776 14.9935 119.522 14.4427 118.704 14.8736C117.873 15.3109 117.075 15.5296 116.309 15.5296C114.516 15.5296 113.051 15.0048 111.914 13.9552C110.799 12.8837 110.241 11.2547 110.241 9.068C110.241 8.54195 110.283 8.0437 110.366 7.57326C110.511 6.75886 111.507 6.75102 111.853 7.50228L113.542 11.17Z" fill="#0F756B"/>
</svg>
