<svg width="19" height="16" viewBox="0 0 19 16" fill="none" xmlns="http://www.w3.org/2000/svg">
<path fill-rule="evenodd" clip-rule="evenodd" d="M18.7919 2.25142C18.1064 2.54502 17.3761 2.73962 16.6146 2.83412C17.3979 2.37742 17.9958 1.65962 18.2769 0.79452C17.5466 1.21982 16.7402 1.52012 15.8808 1.68782C15.1873 0.966619 14.1988 0.52002 13.1206 0.52002C11.0285 0.52002 9.34426 2.17832 9.34426 4.21112C9.34426 4.50362 9.36966 4.78492 9.43186 5.05262C6.29036 4.90302 3.51056 3.43262 1.64316 1.19282C1.31716 1.74512 1.12586 2.37742 1.12586 3.05802C1.12586 4.33602 1.79986 5.46892 2.80436 6.12482C2.19726 6.11352 1.60166 5.94142 1.09706 5.67032C1.09706 5.68152 1.09706 5.69612 1.09706 5.71082C1.09706 7.50402 2.40696 8.99352 4.12456 9.33662C3.81696 9.41882 3.48176 9.45812 3.13386 9.45812C2.89196 9.45812 2.64766 9.44462 2.41846 9.39512C2.90806 10.8565 4.29736 11.9309 5.94936 11.9658C4.66366 12.9479 3.03136 13.5396 1.26416 13.5396C0.954263 13.5396 0.657063 13.5261 0.359863 13.489C2.03366 14.5431 4.01746 15.145 6.15666 15.145C13.1102 15.145 16.9118 9.52002 16.9118 4.64432C16.9118 4.48112 16.906 4.32362 16.898 4.16732C17.6479 3.64752 18.2781 2.99842 18.7919 2.25142Z" fill="#1B353D"/>
</svg>
