<svg width="18" height="18" viewBox="0 0 18 18" fill="none" xmlns="http://www.w3.org/2000/svg">
<path fill-rule="evenodd" clip-rule="evenodd" d="M2.84358 4.25091C4.2729 2.01718 6.78415 0.537598 9.64027 0.537598C14.0808 0.537598 17.6907 4.11622 17.6907 8.54309C17.6907 11.589 15.9818 14.2333 13.4691 15.5867V16.2591C13.4691 16.7013 13.1109 17.0597 12.669 17.0597H11.0689C5.32461 17.0597 0.667969 12.4003 0.667969 6.65256V5.05146C0.667969 4.60933 1.02617 4.25091 1.46804 4.25091H2.84358ZM4.07709 5.50473C5.15689 3.56072 7.24183 2.24089 9.64027 2.24089C13.1519 2.24089 15.9885 5.06804 15.9885 8.54309C15.9885 10.7653 14.8285 12.7226 13.0738 13.845C12.9915 13.7967 12.8994 13.7625 12.8005 13.746L9.25153 13.1542C8.90508 13.0964 8.56148 13.2715 8.4044 13.5858L7.78509 14.8252C5.56574 13.9315 3.79429 12.159 2.90117 9.93831L4.13979 9.31863C4.45394 9.16146 4.62891 8.81765 4.57117 8.47099L4.07709 5.50473Z" fill="#1B353D"/>
<path d="M5.71612 10.8971V10.4368L7.445 8.54423C7.64789 8.32258 7.81498 8.12992 7.94627 7.96623C8.07756 7.80085 8.17474 7.64569 8.23783 7.50077C8.30262 7.35414 8.33501 7.20069 8.33501 7.04042C8.33501 6.85628 8.29068 6.69686 8.20202 6.56216C8.11507 6.42747 7.99571 6.32346 7.84397 6.25015C7.69222 6.17683 7.52172 6.14017 7.33247 6.14017C7.13128 6.14017 6.95566 6.18195 6.80562 6.26549C6.65729 6.34733 6.5422 6.46242 6.46036 6.61076C6.38022 6.75909 6.34016 6.933 6.34016 7.13249H5.73658C5.73658 6.82559 5.80734 6.5562 5.94886 6.32432C6.09037 6.09243 6.28304 5.9117 6.52685 5.78212C6.77237 5.65254 7.04773 5.58775 7.35293 5.58775C7.65983 5.58775 7.93178 5.65254 8.16877 5.78212C8.40577 5.9117 8.59161 6.08647 8.72631 6.30641C8.861 6.52636 8.92835 6.77103 8.92835 7.04042C8.92835 7.23308 8.8934 7.42149 8.82349 7.60563C8.75529 7.78806 8.63594 7.99181 8.46544 8.21687C8.29665 8.44023 8.06221 8.71303 7.76213 9.03527L6.58568 10.2936V10.3345H9.02042V10.8971H5.71612Z" fill="#1B353D"/>
<path d="M9.84138 9.82298V9.30125L12.1431 5.65936H12.5216V6.46754H12.2659L10.5268 9.21941V9.26033H13.6265V9.82298H9.84138ZM12.3068 10.8971V5.65936H12.9104V10.8971H12.3068Z" fill="#1B353D"/>
</svg>
