<svg width="20" height="22" viewBox="0 0 20 22" fill="none" xmlns="http://www.w3.org/2000/svg">
<path d="M19.1599 15.13L17.1599 13.98L18.0499 13.74C18.1806 13.7095 18.3038 13.6531 18.4122 13.574C18.5207 13.4949 18.6121 13.3948 18.681 13.2797C18.7499 13.1645 18.795 13.0367 18.8134 12.9037C18.8319 12.7708 18.8235 12.6355 18.7885 12.5059C18.7536 12.3763 18.693 12.2551 18.6102 12.1495C18.5275 12.0438 18.4243 11.9559 18.3068 11.8909C18.1894 11.826 18.0601 11.7854 17.9266 11.7715C17.7931 11.7576 17.6582 11.7707 17.5299 11.81L14.7099 12.57L11.9999 11L14.7099 9.43L17.5299 10.19H17.7899C18.0551 10.2245 18.3231 10.1522 18.5351 9.98903C18.747 9.82587 18.8854 9.58522 18.9199 9.32C18.9543 9.05478 18.8821 8.78673 18.7189 8.57482C18.5557 8.3629 18.3151 8.22448 18.0499 8.19L17.1599 8L19.1599 6.85C19.2741 6.78434 19.3743 6.69682 19.4547 6.59243C19.5352 6.48805 19.5942 6.36885 19.6286 6.24163C19.663 6.11441 19.6719 5.98168 19.655 5.85099C19.638 5.72031 19.5955 5.59425 19.5299 5.48C19.4642 5.36575 19.3767 5.26555 19.2723 5.18513C19.1679 5.1047 19.0487 5.04562 18.9215 5.01126C18.7943 4.97691 18.6615 4.96794 18.5309 4.98488C18.4002 5.00182 18.2741 5.04434 18.1599 5.11L15.9999 6.37L16.2999 5.26C16.3392 5.13169 16.3523 4.99677 16.3384 4.86328C16.3245 4.7298 16.2839 4.60048 16.2189 4.48303C16.154 4.36558 16.0661 4.2624 15.9604 4.17965C15.8548 4.09689 15.7335 4.03625 15.6039 4.00133C15.4744 3.96642 15.3391 3.95795 15.2061 3.97642C15.0732 3.9949 14.9454 4.03994 14.8302 4.10886C14.715 4.17779 14.6149 4.26919 14.5359 4.37762C14.4568 4.48605 14.4003 4.60929 14.3699 4.74L13.5499 7.74L10.9999 9.27V6.14L13.0699 4.07C13.2561 3.88264 13.3607 3.62919 13.3607 3.365C13.3607 3.10081 13.2561 2.84736 13.0699 2.66C12.9769 2.56627 12.8663 2.49188 12.7444 2.44111C12.6226 2.39034 12.4919 2.3642 12.3599 2.3642C12.2279 2.3642 12.0972 2.39034 11.9753 2.44111C11.8534 2.49188 11.7428 2.56627 11.6499 2.66L10.9999 3.31V1C10.9999 0.734784 10.8945 0.48043 10.707 0.292893C10.5194 0.105357 10.2651 0 9.99987 0C9.73465 0 9.4803 0.105357 9.29276 0.292893C9.10523 0.48043 8.99987 0.734784 8.99987 1V3.47L8.18987 2.66C8.09691 2.56627 7.98631 2.49188 7.86445 2.44111C7.74259 2.39034 7.61188 2.3642 7.47987 2.3642C7.34786 2.3642 7.21715 2.39034 7.09529 2.44111C6.97343 2.49188 6.86283 2.56627 6.76987 2.66C6.58362 2.84736 6.47908 3.10081 6.47908 3.365C6.47908 3.62919 6.58362 3.88264 6.76987 4.07L8.99987 6.3V9.3L6.42987 7.78L5.60987 4.78C5.57942 4.64929 5.52297 4.52605 5.44388 4.41762C5.3648 4.30919 5.26469 4.21779 5.14954 4.14886C5.03438 4.07994 4.90653 4.03489 4.7736 4.01642C4.64067 3.99795 4.50539 4.00642 4.3758 4.04133C4.24621 4.07625 4.12498 4.13689 4.01933 4.21965C3.91367 4.3024 3.82575 4.40558 3.76081 4.52303C3.69587 4.64048 3.65524 4.7698 3.64134 4.90328C3.62743 5.03677 3.64053 5.17169 3.67987 5.3L3.99987 6.37L1.83987 5.13C1.72562 5.06434 1.59956 5.02182 1.46887 5.00488C1.33819 4.98794 1.20546 4.99691 1.07824 5.03126C0.951024 5.06562 0.831821 5.1247 0.727436 5.20513C0.623052 5.28555 0.535531 5.38575 0.46987 5.5C0.404209 5.61425 0.361694 5.74031 0.344753 5.871C0.327812 6.00168 0.336776 6.13441 0.371134 6.26163C0.440522 6.51855 0.609131 6.73739 0.83987 6.87L2.83987 8L1.99987 8.26C1.73465 8.29448 1.494 8.4329 1.33084 8.64482C1.16768 8.85673 1.09539 9.12478 1.12987 9.39C1.16435 9.65522 1.30277 9.89587 1.51469 10.059C1.7266 10.2222 1.99465 10.2945 2.25987 10.26H2.51987L5.33987 9.5L7.99987 11L5.28987 12.57L2.46987 11.81C2.33755 11.7609 2.19633 11.7403 2.0555 11.7497C1.91466 11.759 1.7774 11.7981 1.65274 11.8643C1.52808 11.9305 1.41885 12.0223 1.33223 12.1338C1.24561 12.2452 1.18356 12.3737 1.15017 12.5108C1.11677 12.648 1.11278 12.7906 1.13847 12.9294C1.16415 13.0682 1.21893 13.2 1.29919 13.3161C1.37945 13.4322 1.48338 13.53 1.60415 13.6031C1.72491 13.6761 1.85978 13.7228 1.99987 13.74L2.88987 13.98L0.88987 15.13C0.659132 15.2626 0.490522 15.4814 0.421133 15.7384C0.351745 15.9953 0.387262 16.2693 0.51987 16.5C0.652478 16.7307 0.871315 16.8993 1.12824 16.9687C1.38517 17.0381 1.65913 17.0026 1.88987 16.87L3.99987 15.63L3.69987 16.74C3.66023 16.868 3.64672 17.0027 3.66014 17.136C3.67357 17.2693 3.71365 17.3986 3.77802 17.5161C3.84238 17.6337 3.92971 17.7371 4.03482 17.8202C4.13993 17.9033 4.26067 17.9645 4.38987 18C4.47626 18.0098 4.56348 18.0098 4.64987 18C4.87563 18.0077 5.09736 17.9388 5.27895 17.8044C5.46053 17.6701 5.59127 17.4782 5.64987 17.26L6.46987 14.26L8.99987 12.73V15.86L6.92987 17.93C6.74362 18.1174 6.63908 18.3708 6.63908 18.635C6.63908 18.8992 6.74362 19.1526 6.92987 19.34C7.02248 19.4345 7.13293 19.5097 7.2548 19.5612C7.37668 19.6127 7.50756 19.6395 7.63987 19.64C7.77218 19.6395 7.90306 19.6127 8.02494 19.5612C8.14681 19.5097 8.25726 19.4345 8.34987 19.34L8.99987 18.69V21C8.99987 21.2652 9.10523 21.5196 9.29276 21.7071C9.4803 21.8946 9.73465 22 9.99987 22C10.2651 22 10.5194 21.8946 10.707 21.7071C10.8945 21.5196 10.9999 21.2652 10.9999 21V18.53L11.8099 19.34C11.9028 19.4337 12.0134 19.5081 12.1353 19.5589C12.2572 19.6097 12.3879 19.6358 12.5199 19.6358C12.6519 19.6358 12.7826 19.6097 12.9044 19.5589C13.0263 19.5081 13.1369 19.4337 13.2299 19.34C13.4161 19.1526 13.5207 18.8992 13.5207 18.635C13.5207 18.3708 13.4161 18.1174 13.2299 17.93L10.9999 15.7V12.7L13.5699 14.19L14.3899 17.19C14.4485 17.4082 14.5792 17.6001 14.7608 17.7344C14.9424 17.8688 15.1641 17.9377 15.3899 17.93C15.4763 17.9398 15.5635 17.9398 15.6499 17.93C15.7775 17.8964 15.8973 17.8378 16.0022 17.7576C16.1071 17.6774 16.1951 17.5773 16.2611 17.4629C16.3272 17.3486 16.3699 17.2223 16.3868 17.0913C16.4038 16.9604 16.3946 16.8274 16.3599 16.7L15.9999 15.63L18.1399 16.87C18.2541 16.9357 18.3802 16.9782 18.5109 16.9951C18.6415 17.0121 18.7743 17.0031 18.9015 16.9687C19.0287 16.9344 19.1479 16.8753 19.2523 16.7949C19.3567 16.7144 19.4442 16.6143 19.5099 16.5C19.5755 16.3857 19.618 16.2597 19.635 16.129C19.6519 15.9983 19.643 15.8656 19.6086 15.7384C19.5742 15.6112 19.5152 15.492 19.4347 15.3876C19.3543 15.2832 19.2541 15.1957 19.1399 15.13H19.1599Z" fill="#404040" fill-opacity="0.8"/>
</svg>
