<svg width="16" height="16" viewBox="0 0 16 16" fill="none" xmlns="http://www.w3.org/2000/svg">
<path d="M1.86977 0.636719C1.37781 0.636719 0.979004 1.03977 0.979004 1.53696V3.33745C0.979004 9.80092 6.16353 15.0406 12.559 15.0406H14.3405C14.8325 15.0406 15.2313 14.6375 15.2313 14.1404V12.2022C15.2313 11.7622 14.9165 11.3866 14.4869 11.3143L10.5356 10.6487C10.1499 10.5837 9.76733 10.7806 9.59244 11.1341L8.90293 12.5278C6.43199 11.5228 4.45972 9.5296 3.46536 7.03237L4.84439 6.33552C5.19416 6.15878 5.38897 5.77216 5.32468 5.38232L4.66612 1.38896C4.59454 0.954876 4.22292 0.636719 3.78748 0.636719H1.86977Z" fill="#1B353D"/>
<path d="M8.55999 1.40288C7.72262 1.40288 7.04379 1.96419 7.04379 2.6566V5.16405C7.04379 5.85646 7.72262 6.41777 8.55999 6.41777H10.0762V8.29836L12.3505 6.41777H13.8667C14.7041 6.41777 15.3829 5.85646 15.3829 5.16405V2.6566C15.3829 1.96419 14.7041 1.40288 13.8667 1.40288H8.55999Z" fill="#1B353D"/>
</svg>
