<svg width="24" height="24" viewBox="0 0 24 24" fill="none" xmlns="http://www.w3.org/2000/svg">
<path d="M9.99951 18C11.7745 17.9996 13.4983 17.4054 14.8965 16.312L19.2925 20.708L20.7065 19.294L16.3105 14.898C17.4045 13.4997 17.9991 11.7754 17.9995 10C17.9995 5.589 14.4105 2 9.99951 2C5.58851 2 1.99951 5.589 1.99951 10C1.99951 14.411 5.58851 18 9.99951 18ZM9.99951 4C13.3085 4 15.9995 6.691 15.9995 10C15.9995 13.309 13.3085 16 9.99951 16C6.69051 16 3.99951 13.309 3.99951 10C3.99951 6.691 6.69051 4 9.99951 4Z" fill="#242243" fill-opacity="0.3"/>
</svg>
